PathFileType	4	(X/Y/Z)	Kaydara																																																																																																																									
DataRate	CameraRate	NumFrames	NumMarkers	Units	OrigDataRate	OrigDataStartFrame	OrigNumFrames																																																																																																																					
30	30	7	41	mm	30	43	341																																																																																																																					
Frame#	Time	NABA_LFHD			NABA_RFHD			NABA_LBHD			NABA_RBHD			NABA_LFTShould			NABA_RFTShould			NABA_LRRShould			NABA_RRRShould			NABA_T10			NABA_STRN			NABA_TRUN			NABA_LSHO			NABA_LUPA			NABA_LELB			NABA_LFRM			NABA_LWRA			NABA_LWRB			NABA_LFIN			NABA_RSHO			NABA_RUPA			NABA_RELB			NABA_RFRM			NABA_RWRA			NABA_RWRB			NABA_RFIN			NABA_LFWT			NABA_RFWT			NABA_LBWT			NABA_RBWT			NABA_LTHI			NABA_LKNE			NABA_LSHN			NABA_LANK			NABA_LHEE			NABA_LTOE			NABA_RTHI			NABA_RKNE			NABA_RSHN			NABA_RANK			NABA_RHEE			NABA_RTOE		
		X1	Y1	Z1	X2	Y2	Z2	X3	Y3	Z3	X4	Y4	Z4	X5	Y5	Z5	X6	Y6	Z6	X7	Y7	Z7	X8	Y8	Z8	X9	Y9	Z9	X10	Y10	Z10	X11	Y11	Z11	X12	Y12	Z12	X13	Y13	Z13	X14	Y14	Z14	X15	Y15	Z15	X16	Y16	Z16	X17	Y17	Z17	X18	Y18	Z18	X19	Y19	Z19	X20	Y20	Z20	X21	Y21	Z21	X22	Y22	Z22	X23	Y23	Z23	X24	Y24	Z24	X25	Y25	Z25	X26	Y26	Z26	X27	Y27	Z27	X28	Y28	Z28	X29	Y29	Z29	X30	Y30	Z30	X31	Y31	Z31	X32	Y32	Z32	X33	Y33	Z33	X34	Y34	Z34	X35	Y35	Z35	X36	Y36	Z36	X37	Y37	Z37	X38	Y38	Z38	X39	Y39	Z39	X40	Y40	Z40	X41	Y41	Z41
																																																																																																																												
43	1.41	242.7877	1531.81885	-1807.40143	71.95766	1501.44257	-1797.83752	254.9395	1581.51367	-1922.63123	38.65642	1544.88464	-1883.4256	228.15481	1335.43839	-1948.50876	98.71389	1324.0654	-1946.62445	226.40415	1399.40506	-2059.09454	81.24456	1388.13507	-2050.00244	165.53169	1235.75668	-2141.57303	168.40714	1273.68973	-1901.88614	173.96736	1173.33023	-1859.78439	320.1693	1367.96997	-1993.76328	384.57584	1157.27806	-2051.00372	394.7361	1051.95801	-2042.17499	384.29718	970.97237	-2067.28683	337.00577	821.72508	-1989.22943	406.98723	821.75812	-1997.74933	392.67155	764.84116	-1951.82663	14.27952	1350.15198	-1980.35309	-41.67364	1157.90367	-2064.23859	-66.50964	1022.55791	-2024.97726	-68.12201	926.74103	-2018.86765	-0.24544	803.28606	-1943.64136	-73.09611	790.77232	-1942.80289	-58.21106	754.03412	-1911.88293	299.02691	955.65872	-1950.50842	32.92103	954.7435	-1944.71466	244.1703	1015.84633	-2119.11057	76.92605	1030.84244	-2118.51151	296.99682	658.21411	-2090.24048	298.25687	507.21508	-2035.80963	248.54012	309.64899	-2015.43442	276.18824	159.7986	-2085.89325	218.16545	110.62251	-2138.93646	253.66673	77.59968	-1954.67819	32.36221	672.08328	-2088.04489	46.9979	507.35817	-1976.31409	58.76746	333.45005	-2002.96783	52.40945	142.85106	-2073.4375	101.53562	98.65282	-2141.55609	70.89796	83.23847	-1964.59351
44	1.443	243.24484	1531.52817	-1806.47888	72.32213	1501.1792	-1796.82434	255.44106	1581.36139	-1921.53336	39.0267	1544.78592	-1882.52274	228.71363	1335.49545	-1947.67807	99.08285	1324.1011	-1945.89554	226.8745	1399.43771	-2058.32916	81.63651	1388.14957	-2049.14917	165.9465	1235.78766	-2140.82397	168.89051	1273.64342	-1901.26892	174.32613	1173.22433	-1859.13696	320.28622	1368.17657	-1993.73184	384.90051	1157.22717	-2050.25635	394.96914	1051.82709	-2041.41815	384.46323	970.85564	-2066.56845	336.89865	821.7897	-1988.34442	406.94229	821.63246	-1996.98395	392.54211	764.75189	-1951.05331	14.69685	1350.14191	-1979.52133	-41.26813	1157.91023	-2063.58582	-66.18292	1022.57309	-2024.40704	-67.82539	926.78596	-2018.43063	0.02768	803.30742	-1943.15964	-72.88614	790.79926	-1942.4588	-58.01783	753.97972	-1911.51321	299.41311	955.55916	-1949.85138	33.10505	954.77341	-1943.49197	244.51679	1015.85052	-2118.44849	77.30785	1030.91972	-2117.92419	297.20465	658.1665	-2089.78958	298.39388	507.13387	-2035.4541	248.61012	309.54603	-2015.23727	276.15967	159.70366	-2085.76019	218.11766	110.66539	-2138.89175	253.63792	77.63466	-1954.70886	32.59256	672.09991	-2087.70508	47.13407	507.29675	-1976.10779	58.86765	333.46909	-2002.8566	52.38848	142.84417	-2073.35907	101.57134	98.67229	-2141.53793	70.88448	83.21141	-1964.59854
45	1.477	242.98714	1530.92682	-1804.75525	72.8547	1501.05469	-1795.98099	255.98898	1581.25	-1920.4953	39.48288	1544.63409	-1881.56326	229.23676	1335.37704	-1946.77567	99.42551	1323.86169	-1945.11734	227.28445	1399.46701	-2057.4646	82.10019	1388.12073	-2048.23776	166.35771	1235.84251	-2140.06332	169.34473	1273.49396	-1900.45517	174.7267	1173.03352	-1858.41049	320.74791	1368.14224	-1992.95944	385.26367	1157.10014	-2049.45267	395.29709	1051.72081	-2040.68466	384.71157	970.72609	-2065.82169	336.49063	822.52632	-1987.13318	406.93745	821.56326	-1996.28128	392.34406	764.60159	-1950.18661	15.14315	1350.08636	-1978.69888	-40.84199	1157.96173	-2062.96432	-65.7879	1022.51266	-2023.82568	-67.51206	926.7527	-2017.92542	0.22939	803.15247	-1942.74597	-72.58577	790.73219	-1941.99219	-57.76455	753.92776	-1911.03607	299.67329	955.42809	-1949.19022	33.38696	954.67316	-1943.01758	244.8712	1015.83878	-2117.83295	77.6941	1031.00639	-2117.323	297.45478	658.08731	-2089.31396	298.51931	507.02503	-2035.02777	248.63413	309.46163	-2015.00763	276.16341	159.64068	-2085.69	218.13976	110.65916	-2138.83179	253.57384	77.60462	-1954.6582	32.85367	672.11426	-2087.37	47.29955	507.24121	-1975.88196	58.6342	333.37997	-2002.33261	52.43606	142.85492	-2073.35571	101.5823	98.7155	-2141.52878	70.8641	83.20024	-1964.57901
46	1.51	244.12849	1531.18256	-1804.36447	72.97625	1501.16379	-1795.34882	256.49723	1581.12534	-1919.36005	39.94697	1544.54269	-1880.55756	229.44059	1335.03647	-1946.07483	99.78105	1323.74603	-1945.52444	227.80495	1399.33182	-2056.40259	82.61409	1388.10867	-2047.33124	166.84509	1235.93445	-2139.24637	169.68348	1273.29178	-1899.78729	175.07105	1172.78152	-1857.69012	321.67076	1367.02347	-1988.70804	385.73662	1157.02164	-2048.72635	395.63393	1051.53053	-2039.91379	385.01156	970.55435	-2065.11261	336.73874	821.71227	-1986.42639	407.00985	821.37489	-1995.51544	392.32143	764.41452	-1949.48334	15.53116	1350.04333	-1978.41583	-40.47247	1157.97836	-2062.23343	-65.37332	1022.48642	-2023.16956	-67.14315	926.75697	-2017.32986	0.47842	803.10753	-1942.25204	-72.24055	790.69977	-1941.51703	-57.47206	753.82629	-1910.55389	299.91796	955.31166	-1948.81119	33.69787	954.55246	-1942.83401	245.30827	1015.85068	-2117.20337	78.10644	1031.0524	-2116.74149	297.7454	658.04504	-2088.87482	298.68565	506.94115	-2034.64645	248.64048	309.34153	-2014.80347	276.17588	159.5917	-2085.57373	218.12538	110.67354	-2138.83102	253.5504	77.60429	-1954.64981	33.14868	672.14737	-2087.01813	47.53684	507.18662	-1975.82123	59.04027	333.35899	-2002.75208	52.48963	142.87976	-2073.29636	101.62237	98.72897	-2141.51398	70.89167	83.21959	-1964.56711
47	1.543	244.62591	1530.87738	-1803.25287	73.97835	1500.55664	-1793.82813	257.04647	1580.93857	-1918.25058	40.47175	1544.35043	-1879.43008	230.13248	1335.01785	-1944.85977	100.34144	1323.50403	-1943.41431	228.35533	1399.30328	-2055.36575	83.17757	1388.07617	-2046.34872	167.39946	1235.98778	-2138.43002	170.16766	1273.06641	-1898.79288	175.51603	1172.5074	-1856.92795	322.04666	1367.62955	-1990.1738	386.23604	1156.85036	-2047.79022	396.02879	1051.32347	-2039.07532	385.37395	970.37636	-2064.28345	336.81137	822.34497	-1985.86349	407.20432	821.24374	-1994.85153	392.48547	764.23874	-1948.72696	16.14659	1349.95087	-1976.96625	-39.9289	1158.05267	-2061.43494	-64.93721	1022.52693	-2022.52213	-66.76349	926.81664	-2016.73523	0.97504	803.06595	-1941.71005	-71.87982	790.64247	-1941.03867	-57.14078	753.78098	-1910.14374	300.33556	955.14473	-1948.03131	33.92596	954.57664	-1941.87744	245.78421	1015.83275	-2116.57242	78.58657	1031.07826	-2116.15799	298.02349	657.96326	-2088.46527	298.86288	506.82514	-2034.30466	248.69341	309.20921	-2014.62677	276.17723	159.50463	-2085.51468	218.12498	110.64153	-2138.79471	253.53405	77.63526	-1954.66812	33.47506	672.16782	-2086.63742	47.73295	507.14031	-1975.4715	58.97201	333.26542	-2002.45224	52.50432	142.8941	-2073.26477	101.66883	98.76577	-2141.49139	70.86864	83.22723	-1964.55307
48	1.577	245.30462	1530.55847	-1802.07062	74.56497	1500.17715	-1792.71332	257.63737	1580.70877	-1916.97311	41.08638	1544.14322	-1878.26935	230.54728	1334.67896	-1944.1922	101.06503	1323.37189	-1943.68683	228.99071	1399.23569	-2054.31656	83.76072	1388.08441	-2045.33325	167.9434	1236.04187	-2137.53769	170.54831	1272.73018	-1897.82364	175.96504	1172.25807	-1856.15646	322.31689	1367.8186	-1990.13901	386.73225	1156.67152	-2046.76926	396.45088	1051.16425	-2038.14896	385.78918	970.24551	-2063.45398	337.00226	822.08992	-1985.00916	407.48089	821.08681	-1994.14429	392.80128	764.05304	-1948.10822	16.62458	1349.93713	-1976.5979	-39.51273	1158.01193	-2060.71075	-64.4478	1022.49146	-2021.85486	-66.28857	926.77513	-2016.16196	1.40919	802.99965	-1941.26038	-71.46487	790.58296	-1940.5661	-56.70021	753.65608	-1909.74594	300.94776	954.9601	-1947.27417	34.28508	954.55673	-1941.23657	246.27544	1015.80254	-2115.94025	79.09451	1031.13319	-2115.54138	298.33887	657.8299	-2087.97211	299.04596	506.68564	-2033.84781	248.76085	309.13008	-2014.34418	276.1578	159.41848	-2085.42282	218.12183	110.65039	-2138.78128	253.48373	77.6339	-1954.67712	33.84203	672.17094	-2086.23734	47.80979	507.11788	-1974.98016	59.02781	333.2869	-2001.83624	52.53534	142.90235	-2073.23608	101.66988	98.81721	-2141.45767	70.84476	83.18544	-1964.56741
49	1.61	246.03004	1530.1326	-1800.755	73.72136	1499.92706	-1792.86957	258.35674	1580.46173	-1915.58624	41.71288	1543.9267	-1876.97006	231.40648	1334.62097	-1943.0098	101.70032	1323.28171	-1942.72446	229.68479	1399.24408	-2053.2373	84.42892	1388.08167	-2044.28925	168.64098	1236.1161	-2136.61377	171.29513	1272.62535	-1897.19513	176.53078	1172.01759	-1855.34241	322.99728	1367.5708	-1988.68134	387.32719	1156.55663	-2045.80948	396.9912	1051.04904	-2037.25571	386.30043	970.13885	-2062.65411	337.22416	822.11647	-1984.05792	407.93873	820.75882	-1993.30933	393.19275	763.84285	-1947.45834	17.28205	1349.90112	-1975.61951	-38.92213	1157.98813	-2059.8526	-63.94806	1022.5547	-2021.25244	-65.77432	926.76987	-2015.58777	1.88111	802.90894	-1940.75836	-70.97367	790.47218	-1940.04623	-56.26261	753.55957	-1909.30038	301.46637	954.60289	-1946.72302	34.86851	954.54453	-1940.77057	246.83323	1015.76355	-2115.26443	79.64936	1031.25061	-2114.86816	298.7182	657.70164	-2087.40265	299.23212	506.54202	-2033.31177	248.7077	308.96582	-2014.01611	276.14048	159.25832	-2085.45853	218.1171	110.64239	-2138.73871	253.42407	77.63469	-1954.70139	34.24306	672.19734	-2085.84473	47.95604	507.09908	-1974.79523	59.33193	333.30891	-2002.36633	52.55544	142.97804	-2073.28171	101.66197	98.80252	-2141.47263	70.81067	83.2074	-1964.58298
